# xmcd CD database file
#
# Track frame offsets:
#	150
#	23013
#	44762
#	66046
#	84884
#	107738
#	123474
#	140495
#	162486
#	187218
#	201619
#	218432
#
# Disc length: 3114 seconds
#
# Revision: 0
# Processed by: cddbd v1.5.2PL0 Copyright (c) Steve Scherf et al.
# Submitted via: CDex 1.51
#
DISCID=b10c280c
DTITLE=Bebo and Chucho - Juntos para siempre
DYEAR=2008
DGENRE=Jazz
TTITLE0=Preludio para Bebo
TTITLE1=Descarga Valdés
TTITLE2=Tres palabras
TTITLE3=Rareza del siglo
TTITLE4=Tea for Two
TTITLE5=Son de la loma
TTITLE6=La gloria eres tú
TTITLE7=A Chucho
TTITLE8=Sabor a mí
TTITLE9=Perdido
TTITLE10=Lágrimas negras
TTITLE11=La conga del dentista
EXTD=YEAR: 2008
EXTT0=
EXTT1=
EXTT2=
EXTT3=
EXTT4=
EXTT5=
EXTT6=
EXTT7=
EXTT8=
EXTT9=
EXTT10=
EXTT11=
PLAYORDER=
